<svg version="1.1" id="Layer_1" xmlns="http://www.w3.org/2000/svg" x="0" y="0" viewBox="0 0 545 100" style="enable-background:new 0 0 545 100" xml:space="preserve"><style>.st0{fill:#3780ff}.st2{fill:#fa3913}.st4{fill:#666a6e;stroke:#666a6e;stroke-width:2;stroke-miterlimit:10}</style><path class="st0" d="M38.2 1.6h2.6C50 1.8 59 5.5 65.4 12l-7.2 7.2c-3.6-3.3-8-5.8-12.8-6.7-7.1-1.5-14.7-.1-20.6 3.9-6.5 4.2-10.8 11.4-11.8 19s1.1 15.5 6 21.4c4.7 5.7 11.9 9.3 19.4 9.5 7 .4 14.2-1.7 19.3-6.6 4-3.4 5.8-8.6 6.4-13.7H39.3V35.8H74c1.8 11-.8 23.4-9.1 31.2-5.6 5.6-13.3 8.8-21.1 9.5-7.6.7-15.5-.7-22.2-4.4-8-4.3-14.4-11.6-17.6-20.2-3-7.9-3-16.8-.2-24.8C6.3 19.8 11.2 13.4 17.4 9c6-4.5 13.3-6.9 20.8-7.4z"/><path d="M237.6 4.2h10.6v71h-10.6v-71z" style="fill:#38b137"/><path class="st2" d="M97.9 28.8c6.6-1.2 13.7.1 19.1 4.1 4.9 3.5 8.4 8.9 9.4 14.9 1.3 6.9-.3 14.5-4.8 19.9-4.8 6.1-12.7 9.4-20.4 8.9-7.1-.3-14-3.9-18.2-9.6-4.7-6.4-5.9-15.1-3.3-22.6 2.7-8 10-14.1 18.2-15.6m1.5 9.5c-2.7.7-5.2 2.2-7 4.4-4.8 5.8-4.5 15.2.8 20.5 3 3.1 7.6 4.5 11.8 3.7 3.9-.7 7.4-3.3 9.2-6.8 3.3-5.9 2.3-14.1-2.7-18.7-3.1-3-7.8-4.2-12.1-3.1z"/><path d="M150.6 28.8c7.5-1.4 15.7.6 21.3 5.9 9.1 8.2 10.1 23.6 2.3 33-4.7 6-12.4 9.2-19.9 8.9-7.2-.2-14.3-3.8-18.6-9.7-4.8-6.5-5.9-15.5-3.1-23.1 2.7-7.7 9.9-13.6 18-15m1.5 9.5c-2.7.7-5.2 2.2-7 4.4-4.8 5.7-4.6 14.9.5 20.3 3 3.2 7.8 4.8 12.1 3.9 3.9-.7 7.4-3.3 9.2-6.8 3.2-6 2.3-14.1-2.8-18.7-3.1-3-7.8-4.2-12-3.1z" style="fill:#fcbd06"/><path class="st0" d="M195.3 31.7c5.7-3.6 13.3-4.6 19.5-1.5 1.9.8 3.5 2.3 5.1 3.7v-4.1h10v43.8c0 6.6-1.7 13.6-6.5 18.4-5.2 5.3-13.2 7-20.4 5.9-7.7-1.1-14.4-6.8-17.4-13.9 3-1.4 6.1-2.6 9.2-3.9 1.7 4.1 5.3 7.6 9.7 8.4 4.4.8 9.5-.3 12.4-4 3.1-3.8 3.1-8.9 2.9-13.6-2.3 2.2-4.9 4.2-8.1 5-6.9 1.9-14.5-.4-19.8-5.1-5.4-4.7-8.6-11.9-8.3-19 .2-8.1 4.8-15.9 11.7-20.1m10.3 6.4c-3 .5-5.9 2.2-7.8 4.5-4.7 5.6-4.7 14.5 0 19.9 2.7 3.2 7 5 11.2 4.6 3.9-.4 7.6-2.9 9.5-6.3 3.3-5.8 2.7-13.7-1.7-18.8-2.7-3.1-7.1-4.7-11.2-3.9z"/><path class="st2" d="M261 34.3c6-5.6 15.2-7.5 22.8-4.5 7.3 2.7 11.9 9.6 14.2 16.8-10.8 4.5-21.5 8.9-32.3 13.4 1.5 2.8 3.8 5.4 6.9 6.5 4.3 1.5 9.5 1 13.1-1.9 1.4-1.1 2.6-2.5 3.7-3.9 2.7 1.8 5.5 3.6 8.2 5.5-3.9 5.8-10.4 9.9-17.4 10.5-7.8.9-16-2-21-8.1-8.3-9.7-7.5-25.7 1.8-34.3m5.3 9.2c-1.7 2.4-2.4 5.4-2.3 8.4l21.6-9c-1.2-2.8-4.1-4.5-7-4.9-4.8-1-9.7 1.6-12.3 5.5z"/><path class="st4" d="M325.2 75.4V10.9h8.7l33.8 50.6V10.9h8.2v64.4h-8.7l-33.8-50.6v50.6h-8.2zM421.3 60.3l8.2 1c-1.3 4.8-3.7 8.5-7.2 11.1s-7.9 4-13.4 4c-6.8 0-12.2-2.1-16.2-6.3-4-4.2-6-10.1-6-17.7 0-7.9 2-13.9 6.1-18.3 4-4.3 9.3-6.5 15.7-6.5 6.2 0 11.3 2.1 15.3 6.4 4 4.2 5.9 10.2 5.9 17.9V54h-34.8c.3 5.1 1.7 9.1 4.4 11.8s5.9 4.1 9.8 4.1c2.9 0 5.4-.8 7.4-2.3s3.6-3.9 4.8-7.3zm-26-12.8h26.1c-.4-3.9-1.3-6.9-3-8.8-2.5-3-5.8-4.6-9.8-4.6-3.6 0-6.7 1.2-9.2 3.6-2.5 2.5-3.9 5.8-4.1 9.8zM448 75.4l-14.3-46.7h8.2l7.4 26.9 2.8 10c.1-.5.9-3.7 2.4-9.6l7.4-27.3h8.1l7 27.1 2.3 8.9 2.7-9 8-27h7.7l-14.6 46.7h-8.2l-7.4-27.9-1.8-8-9.4 35.9H448zM501.2 61.4l7.8-1.2c.4 3.1 1.7 5.5 3.7 7.2s4.8 2.5 8.4 2.5c3.6 0 6.3-.7 8.1-2.2s2.6-3.2 2.6-5.2c0-1.8-.8-3.2-2.3-4.2-1.1-.7-3.8-1.6-8.1-2.7-5.8-1.5-9.8-2.7-12.1-3.8-2.2-1.1-3.9-2.5-5.1-4.4-1.2-1.9-1.7-4-1.7-6.3 0-2.1.5-4 1.4-5.8 1-1.8 2.2-3.2 3.9-4.4 1.2-.9 2.9-1.7 5-2.3 2.1-.6 4.4-.9 6.8-.9 3.7 0 6.9.5 9.6 1.6 2.8 1.1 4.8 2.5 6.1 4.3s2.2 4.2 2.7 7.2l-7.7 1.1c-.4-2.4-1.4-4.3-3.1-5.6-1.7-1.3-4.1-2-7.1-2-3.6 0-6.2.6-7.8 1.8-1.6 1.2-2.3 2.6-2.3 4.2 0 1 .3 1.9 1 2.8.6.9 1.7 1.6 3 2.1.8.3 3.1 1 7 2 5.6 1.5 9.5 2.7 11.7 3.7 2.2 1 3.9 2.3 5.2 4.2s1.9 4.1 1.9 6.8c0 2.6-.8 5.1-2.3 7.4-1.5 2.3-3.8 4.1-6.7 5.4-2.9 1.3-6.2 1.9-9.8 1.9-6.1 0-10.7-1.3-13.9-3.8-3-2.7-5-6.4-5.9-11.4z"/></svg>